Coordinates
version=1
nRows=9
nColumns=36
inDegrees=yes

Units are S.I. units (second, meters, Newtons, ...)
If the header above contains a line with 'inDegrees', this indicates whether rotational values are in degrees (yes) or radians (no).

endheader
time	pelvis_tilt	pelvis_list	pelvis_rotation	pelvis_tx	pelvis_ty	pelvis_tz	hip_flexion_r	hip_adduction_r	hip_rotation_r	knee_angle_r	knee_angle_r_beta	ankle_angle_r	subtalar_angle_r	mtp_angle_r	hip_flexion_l	hip_adduction_l	hip_rotation_l	knee_angle_l	knee_angle_l_beta	ankle_angle_l	subtalar_angle_l	mtp_angle_l	lumbar_extension	lumbar_bending	lumbar_rotation	arm_flex_r	arm_add_r	arm_rot_r	elbow_flex_r	pro_sup_r	arm_flex_l	arm_add_l	arm_rot_l	elbow_flex_l	pro_sup_l
      0.00000000	      2.49110281	     -1.39779240	      2.11623114	     -0.90145823	      1.24695561	     -0.07732815	     -5.48792983	      0.33362314	      0.26228573	      6.02752923	      0.10520023	      9.11882434	    -13.91228100	     -5.61649150	     -4.77440978	     -2.83645577	      4.36271183	      7.67408280	      0.13393801	     15.86536343	     -2.85124318	     -5.61649150	     -8.66270513	      2.88279447	     -0.54706450	      3.81473695	     -7.12881365	     15.13021223	     23.24163489	     76.28517638	      5.39359613	     -4.84023834	     14.21280565	     20.46465817	     69.60198376
      0.00416670	      1.58071259	     -1.41455150	      1.89500287	     -0.89438465	      1.24481728	     -0.08216827	     -4.33448832	      0.23887008	      1.08841738	      7.11249208	      0.12413640	     12.58362294	    -11.57898100	     -5.82331533	     -3.78009013	     -1.94583358	      6.42121534	      8.13809032	      0.14203647	     15.14407498	     -3.77033569	     -5.82331533	     -6.42315163	      3.58085544	     -0.61818825	      2.54378598	     -6.52931519	      8.69977489	     23.63075476	     75.96853229	      4.43933641	     -3.22478705	      7.83754108	     20.25689014	     69.44359422
      0.00833330	      0.73583293	     -0.83584766	      1.06688862	     -0.89381792	      1.24390165	     -0.08013231	     -3.73834994	     -0.62585473	      1.18854326	      6.66423395	      0.11631282	     13.21490244	    -11.23232314	     -5.89787818	     -3.15854562	     -1.20726363	      6.39455538	      8.20551101	      0.14321318	     15.23970361	     -4.00943802	     -5.89787818	     -5.11057096	      2.91917291	     -0.25578385	      1.77362052	     -6.30545545	      8.28521374	     24.53631222	     74.94726978	      3.55879750	     -3.32546724	      7.50163125	     20.95413566	     68.77928604
      0.01250000	      2.09240292	     -0.54117969	      0.62991036	     -0.89472640	      1.24923099	     -0.07968269	     -5.67860780	     -1.10901382	      0.54667141	      5.73310032	      0.10006148	     13.86913713	     -8.96708941	     -6.32272873	     -5.47592146	     -0.78433306	      7.30573310	      6.86469053	      0.11981145	     14.29816272	     -5.49341727	     -6.32272873	     -6.87636948	      2.56158047	      0.74767871	      1.55333925	     -5.64878750	      2.97597141	     24.97645016	     76.77726637	      4.27197068	     -3.00390643	      5.60738478	     20.16821271	     70.20588874
      0.01666670	      2.48072800	     -0.47786522	      0.40143866	     -0.89531040	      1.24618126	     -0.07942794	     -5.99738026	     -1.22278356	      0.59177782	      5.89148985	      0.10282590	     13.92271929	     -8.83576731	     -6.45248617	     -6.23469127	     -0.62430205	      7.90609085	      6.31960338	      0.11029789	     13.91687193	     -6.41030630	     -6.45248617	     -7.39926522	      2.55297589	      1.03347717	      1.61150669	     -5.97900318	      4.25420555	     25.42636551	     78.38541871	      4.35005782	     -3.06911455	      5.99021810	     20.05577707	     71.01814061
      0.02083330	      2.98219972	     -0.46549126	      0.17712228	     -0.89560445	      1.24725844	     -0.07904276	     -6.78067266	     -1.25044877	      0.63265416	      5.41353536	      0.09448402	     13.68309378	     -8.75902235	     -6.58055767	     -6.93538626	     -0.54005682	      8.18301383	      5.86966496	      0.10244498	     13.58294203	     -7.21097896	     -6.58055767	     -8.08183400	      2.56327596	      1.43035832	      1.75256235	     -6.11596245	      4.59947324	     25.71306133	     76.92575493	      4.77181020	     -2.84037140	      5.75237706	     19.73424989	     69.92176736
      0.02500000	      3.12929693	     -0.46443808	      0.06225886	     -0.89567768	      1.24777050	     -0.07890931	     -7.14897772	     -1.23952310	      0.83732798	      4.93222210	      0.08608352	     13.49044966	     -8.81095060	     -7.03265638	     -7.17502629	     -0.50393615	      8.34552780	      5.59484805	      0.09764852	     13.32397375	     -7.77721452	     -7.03265638	     -8.25701652	      2.69192397	      1.59729517	      2.03330978	     -6.56766648	      7.45849091	     25.66049476	     75.99567187	      5.01649348	     -2.88226067	      6.52364935	     19.59565104	     69.21834042
      0.02916670	      3.27777169	     -0.41231790	      0.07693272	     -0.89568614	      1.24803924	     -0.07876482	     -7.55940846	     -1.27653089	      0.90706516	      4.42890515	      0.07729898	     13.42138280	     -8.80767404	     -7.10858739	     -7.34192833	     -0.45404193	      8.70842296	      5.56753617	      0.09717184	     13.25316952	     -8.31739871	     -7.10858739	     -8.44652726	      2.67471607	      1.75551491	      2.08864103	     -6.65815739	      7.81010187	     25.89208134	     76.06490277	      5.24094695	     -2.75372014	      6.05787829	     19.55945506	     69.11797087
      0.03333330	      3.37637811	     -0.37032978	      0.07343346	     -0.89577978	      1.24845047	     -0.07884874	     -7.74232502	     -1.30256657	      1.02005392	      4.25863946	      0.07432728	     13.37567365	     -9.00106418	     -7.12523947	     -7.42807388	     -0.41424877	      8.92972864	      5.61097006	      0.09792990	     13.13182363	     -8.59624652	     -7.12523947	     -8.61996159	      2.63720491	      1.87943501	      2.17661692	     -6.65740135	      8.01577060	     25.96964051	     75.79095310	      5.46129249	     -2.66607032	      5.94392239	     19.42384536	     68.86761773
